<svg xmlns="http://www.w3.org/2000/svg" xmlns:xlink="http://www.w3.org/1999/xlink" xml:space="preserve" version="1.1" style="shape-rendering:geometricPrecision;text-rendering:geometricPrecision;image-rendering:optimizeQuality;" viewBox="0 0 655 806.25" x="0px" y="0px" fill-rule="evenodd" clip-rule="evenodd"><defs><style type="text/css">
   
    .fil0 {fill:black}
   
  </style></defs><g><path class="fil0" d="M73 346l0 299 510 0 0 -299 8 8c14,15 38,15 53,0l0 0c15,-14 15,-38 0,-53l-290 -290 0 0c-14,-15 -38,-15 -53,0l0 0 -146 146 0 -72 -75 0 0 146 -69 70c-15,15 -15,39 0,53l0 0c15,15 39,15 54,0l8 -8zm322 16l-134 0 0 232 -138 0 0 -298 205 -205 204 205 0 298 -137 0 0 -232z"/></g><text x="0" y="660" fill="#000000" font-size="5px" font-weight="bold" font-family="'Helvetica Neue', Helvetica, Arial-Unicode, Arial, Sans-serif">Created by Mariyani</text><text x="0" y="665" fill="#000000" font-size="5px" font-weight="bold" font-family="'Helvetica Neue', Helvetica, Arial-Unicode, Arial, Sans-serif">from the Noun Project</text></svg>