<svg xmlns="http://www.w3.org/2000/svg" data-name="Layer 1" viewBox="0 0 1000 1250" x="0px" y="0px"><title>7495-Links</title><path d="M521.66,614.13h-302C144.87,614.13,84,553.25,84,478.43V344.54c0-74.82,60.87-135.69,135.69-135.69h302c74.81,0,135.68,60.87,135.68,135.68v57.34a16,16,0,0,1-32,0V344.53A103.8,103.8,0,0,0,521.67,240.85h-302A103.81,103.81,0,0,0,116,344.54V478.43a103.82,103.82,0,0,0,103.69,103.7h302a103.82,103.82,0,0,0,103.69-103.7V460.77a16,16,0,1,1,32,0v17.66C657.35,553.25,596.48,614.13,521.66,614.13Z"/><path d="M521.66,555.23h-302a76.88,76.88,0,0,1-76.79-76.8V344.54a76.88,76.88,0,0,1,76.79-76.79h302a76.86,76.86,0,0,1,76.78,76.78v57.34a16,16,0,0,1-32,0V344.53a44.83,44.83,0,0,0-44.78-44.78h-302a44.84,44.84,0,0,0-44.79,44.79V478.43a44.85,44.85,0,0,0,44.79,44.8h302a44.85,44.85,0,0,0,44.79-44.8V460.77a16,16,0,0,1,32,0v17.66A76.88,76.88,0,0,1,521.66,555.23Z"/><path d="M780.31,791.15h-302c-74.82,0-135.69-60.87-135.69-135.69V598.13a16,16,0,0,1,32,0v57.33A103.81,103.81,0,0,0,478.34,759.15h302A103.81,103.81,0,0,0,884,655.46V521.57a103.82,103.82,0,0,0-103.69-103.7h-302a103.82,103.82,0,0,0-103.69,103.7v17.66a16,16,0,0,1-32,0V521.57c0-74.82,60.87-135.7,135.69-135.7h302c74.82,0,135.69,60.88,135.69,135.7V655.46C916,730.28,855.13,791.15,780.31,791.15Z"/><path d="M780.31,732.25h-302a76.88,76.88,0,0,1-76.79-76.79V598.13a16,16,0,0,1,32,0v57.33a44.84,44.84,0,0,0,44.79,44.79h302a44.84,44.84,0,0,0,44.79-44.79V521.57a44.85,44.85,0,0,0-44.79-44.8h-302a44.85,44.85,0,0,0-44.79,44.8v17.66a16,16,0,0,1-32,0V521.57a76.88,76.88,0,0,1,76.79-76.8h302a76.88,76.88,0,0,1,76.79,76.8V655.46A76.88,76.88,0,0,1,780.31,732.25Z"/><text x="0" y="1015" fill="#000000" font-size="5px" font-weight="bold" font-family="'Helvetica Neue', Helvetica, Arial-Unicode, Arial, Sans-serif">Created by IYIKON</text><text x="0" y="1020" fill="#000000" font-size="5px" font-weight="bold" font-family="'Helvetica Neue', Helvetica, Arial-Unicode, Arial, Sans-serif">from the Noun Project</text></svg>