<svg xmlns="http://www.w3.org/2000/svg" xmlns:xlink="http://www.w3.org/1999/xlink" version="1.1" x="0px" y="0px" viewBox="0 0 100 125" style="enable-background:new 0 0 100 100;" xml:space="preserve"><g><g><g><g><path d="M39.5,99.8c-1.6,0-3.3-0.5-4.7-1.6c-2.3-1.7-3.7-4.4-3.7-7.1V48.3l0-0.1c0.6-3.2,3.3-5.7,6.5-6.1      c2.6-0.3,5.2,0.7,6.8,2.7c1.1,1.4,1.7,3,1.7,4.7c2.2-0.9,4.5-0.9,6.7,0.1c3,1.5,5.2,4.8,5.3,8.2c0.1,2.6-1,5-3.1,6.7      c2.1,1.8,3.5,4.4,3.7,7.3c0.3,3.2-0.8,6.2-3,8.4c1.1,2.9,0.7,6.1-1.1,8.7c-1.8,2.5-4.5,4-7.5,4.1c-0.5,3-2.6,5.5-5.6,6.4      C41,99.7,40.3,99.8,39.5,99.8z M33.4,48.5v42.6c0,2,1.1,4,2.7,5.2c1.5,1.1,3.2,1.4,4.8,0.9c2.4-0.7,4-2.9,4-5.5l0-1.2l1.2,0.1      c2.6,0.3,5.1-0.9,6.6-3c1.5-2.2,1.7-4.9,0.6-7.2l-0.4-0.8l0.7-0.6c2.1-1.8,3.1-4.4,2.9-7.1c-0.2-2.7-1.7-5.1-4-6.5l-1.7-1l1.7-1      c2.2-1.3,3.4-3.3,3.3-5.6c-0.1-2.6-1.7-5.2-4-6.3c-1.4-0.7-3.7-1.1-6.5,0.9l-2.8,2.1l1.1-3.3c0.6-1.7,0.2-3.6-1-5      c-1.2-1.4-2.9-2.1-4.8-1.9C35.7,44.6,33.9,46.3,33.4,48.5z"/></g><g><path d="M39.8,56.2c-0.2,0-0.3,0-0.5,0c-0.6,0-1.1-0.6-1.1-1.2c0-0.6,0.6-1.1,1.2-1.1c3.1,0.2,4.4-2.7,4.4-2.7      c0.2-0.6,0.9-0.8,1.5-0.6c0.6,0.2,0.8,0.9,0.6,1.5C45.8,52.3,44.1,56.2,39.8,56.2z"/></g><g><path d="M50.6,66c-1.9,0-4.3-0.5-6-2.6c-0.4-0.5-0.3-1.2,0.2-1.6c0.5-0.4,1.2-0.3,1.6,0.2      c2.2,2.7,6.4,1.5,6.5,1.5c0.6-0.2,1.2,0.2,1.4,0.8c0.2,0.6-0.2,1.2-0.8,1.4C53.4,65.7,52.2,66,50.6,66z"/></g><g><path d="M53.4,81.1c-1.8,0-5.2-0.4-6.9-3c-0.3-0.5-0.2-1.2,0.3-1.6c0.5-0.3,1.2-0.2,1.6,0.3      c1.6,2.5,5.9,1.9,5.9,1.9c0.6-0.1,1.2,0.4,1.3,1c0.1,0.6-0.4,1.2-1,1.3C54.6,81.1,54.1,81.1,53.4,81.1z"/></g><g><path d="M46.2,93c-0.1,0-0.1,0-0.2,0c-2.1-0.4-5.9-2.4-5.8-6.8c0-0.6,0.5-1.1,1.2-1.1c0.6,0,1.1,0.6,1.1,1.2      c-0.1,3.6,3.8,4.4,3.9,4.5c0.6,0.1,1,0.7,0.9,1.3C47.2,92.6,46.7,93,46.2,93z"/></g></g><g><g><path d="M19.4,99.8c-0.7,0-1.4-0.1-2.1-0.3c-3-0.9-5.1-3.4-5.6-6.4c-3-0.1-5.8-1.5-7.5-4.1      c-1.8-2.6-2.2-5.8-1.1-8.7C0.9,78-0.2,75,0,71.8c0.2-2.9,1.6-5.4,3.7-7.3c-2.1-1.7-3.2-4.1-3.1-6.7c0.1-3.4,2.2-6.8,5.3-8.2      c2.1-1,4.5-1.1,6.7-0.1c0-1.7,0.6-3.4,1.7-4.7c1.7-2,4.2-3,6.8-2.7c3.3,0.4,5.9,2.9,6.5,6.1l0,0.2v42.7c0,2.7-1.4,5.4-3.7,7.1      C22.7,99.2,21,99.8,19.4,99.8z M13.9,90.6l0,1.2c0,2.5,1.6,4.7,4,5.5c1.6,0.5,3.3,0.2,4.8-0.9c1.7-1.3,2.7-3.3,2.7-5.2V48.5      c-0.4-2.2-2.3-3.9-4.5-4.2c-1.9-0.2-3.6,0.5-4.8,1.9c-1.2,1.4-1.5,3.3-1,5l1.1,3.3l-2.8-2.1c-2.7-2-5-1.6-6.5-0.9      c-2.3,1.1-3.9,3.7-4,6.3c-0.1,2.3,1.1,4.3,3.3,5.6l1.7,1l-1.7,1c-2.3,1.4-3.8,3.8-4,6.5c-0.2,2.7,0.8,5.3,2.9,7.1l0.7,0.6      l-0.4,0.8c-1.1,2.4-0.9,5.1,0.6,7.2c1.5,2.2,4,3.3,6.6,3L13.9,90.6z"/></g><g><path d="M19.2,56.2c-4.3,0-6-4-6.1-4.1c-0.3-0.6,0-1.3,0.6-1.5c0.6-0.3,1.2,0,1.5,0.6c0.1,0.1,1.4,3,4.4,2.7      c0.6,0,1.2,0.4,1.2,1.1c0,0.6-0.4,1.2-1.1,1.2C19.5,56.2,19.3,56.2,19.2,56.2z"/></g><g><path d="M8.3,66c-1.6,0-2.8-0.3-2.9-0.4c-0.6-0.2-0.9-0.8-0.8-1.4c0.2-0.6,0.8-1,1.4-0.8l0,0      c0,0,4.3,1.2,6.5-1.5c0.4-0.5,1.1-0.6,1.6-0.2c0.5,0.4,0.6,1.1,0.2,1.6C12.6,65.5,10.2,66,8.3,66z"/></g><g><path d="M5.6,81.1c-0.7,0-1.2-0.1-1.3-0.1c-0.6-0.1-1.1-0.7-1-1.3c0.1-0.6,0.7-1.1,1.3-1      c0.1,0,4.3,0.5,5.9-1.9c0.3-0.5,1.1-0.7,1.6-0.3c0.5,0.3,0.7,1.1,0.3,1.6C10.7,80.7,7.4,81.1,5.6,81.1z"/></g><g><path d="M12.7,93c-0.5,0-1-0.4-1.1-0.9c-0.1-0.6,0.3-1.2,0.9-1.3c0.2,0,4.1-0.9,3.9-4.5c0-0.6,0.5-1.2,1.1-1.2      c0.6,0,1.2,0.5,1.2,1.1c0.2,4.4-3.7,6.4-5.8,6.8C12.9,93,12.8,93,12.7,93z"/></g></g></g><g><g><path d="M100,65.3l-17.5-5.4L66.1,65l-5.5-1.7c-0.6-0.2-0.9-0.8-0.8-1.4c0.2-0.6,0.8-0.9,1.4-0.8l4.8,1.5     l16.4-5.1l15.2,4.7V7.3L82.5,2.6L66.1,7.7L49.7,2.6L34.5,7.3V40c0,0.6-0.5,1.1-1.1,1.1c-0.6,0-1.1-0.5-1.1-1.1V5.6l17.5-5.4     l16.4,5.1l16.4-5.1L100,5.6V65.3z"/></g><g><path d="M49.7,14.7c-0.6,0-1.1-0.5-1.1-1.1V1.4c0-0.6,0.5-1.1,1.1-1.1s1.1,0.5,1.1,1.1v12.1     C50.8,14.1,50.3,14.7,49.7,14.7z"/></g><g><path d="M66.1,64.9c-0.6,0-1.1-0.5-1.1-1.1V53.3c0-0.6,0.5-1.1,1.1-1.1c0.6,0,1.1,0.5,1.1,1.1v10.4     C67.2,64.4,66.7,64.9,66.1,64.9z"/></g><g><path d="M82.5,14.7c-0.6,0-1.1-0.5-1.1-1.1V1.4c0-0.6,0.5-1.1,1.1-1.1c0.6,0,1.1,0.5,1.1,1.1v12.1     C83.6,14.1,83.1,14.7,82.5,14.7z"/></g></g><g><path d="M83.4,36.9c-0.3,0-0.6-0.1-0.8-0.3l-7.2-7.2c-0.4-0.4-0.4-1.2,0-1.6s1.2-0.4,1.6,0l7.2,7.2    c0.4,0.4,0.4,1.2,0,1.6C84,36.8,83.7,36.9,83.4,36.9z"/></g><g><path d="M76.3,36.9c-0.3,0-0.6-0.1-0.8-0.3c-0.4-0.4-0.4-1.2,0-1.6l7.2-7.2c0.4-0.4,1.2-0.4,1.6,0    c0.4,0.4,0.4,1.2,0,1.6l-7.2,7.2C76.8,36.8,76.5,36.9,76.3,36.9z"/></g><g><g><path d="M49.4,38.5c-0.6,0-1.1-0.5-1.1-1.1c0-2.8,1.3-5.5,3.6-7.5c1-0.9,1.4-2.2,1.2-3.5     c-0.3-1.4-1.4-2.6-2.9-2.9c-1.1-0.2-2.2,0.1-3.1,0.8c-0.9,0.7-1.3,1.7-1.3,2.8c0,0.6-0.5,1.1-1.1,1.1c-0.6,0-1.1-0.5-1.1-1.1     c0-1.8,0.8-3.5,2.2-4.6c1.4-1.1,3.2-1.6,5-1.2c2.3,0.5,4.2,2.3,4.7,4.7c0.4,2.1-0.3,4.3-1.9,5.7c-1.8,1.5-2.8,3.7-2.8,5.8     C50.5,38,50,38.5,49.4,38.5z"/></g><circle cx="49.4" cy="40.9" r="1.5"/></g></g></svg>